<svg width="34" height="34" viewBox="0 0 34 34" fill="none" xmlns="http://www.w3.org/2000/svg">
<rect width="33.8056" height="33.8033" rx="16.9017" fill="black" fill-opacity="0.5"/>
<path d="M17 25.8033C14.5 25.8033 12.375 24.9283 10.625 23.1783C8.875 21.4283 8 19.3033 8 16.8033C8 14.5533 8.6625 12.645 9.9875 11.0783C11.3125 9.51167 13.05 8.50333 15.2 8.05333C15.8833 7.92 16.35 8.03667 16.6 8.40333C16.85 8.77 16.8417 9.27 16.575 9.90333C16.425 10.2867 16.3083 10.6783 16.225 11.0783C16.1417 11.4783 16.1 11.8867 16.1 12.3033C16.1 13.8033 16.625 15.0783 17.675 16.1283C18.725 17.1783 20 17.7033 21.5 17.7033C21.9167 17.7033 22.3208 17.6658 22.7125 17.5908C23.1042 17.5158 23.4833 17.4117 23.85 17.2783C24.5667 17.0117 25.1 17.0242 25.45 17.3158C25.8 17.6075 25.8917 18.1033 25.725 18.8033C25.275 20.82 24.2667 22.4908 22.7 23.8158C21.1333 25.1408 19.2333 25.8033 17 25.8033ZM17 24.3033C18.8167 24.3033 20.4 23.7408 21.75 22.6158C23.1 21.4908 23.9417 20.17 24.275 18.6533C23.8583 18.8367 23.4111 18.9742 22.9333 19.0658C22.4556 19.1575 21.9778 19.2033 21.5 19.2033C19.5885 19.2033 17.9606 18.5312 16.6164 17.187C15.2721 15.8427 14.6 14.2148 14.6 12.3033C14.6 11.9033 14.6417 11.4742 14.725 11.0158C14.8083 10.5575 14.9583 10.0367 15.175 9.45333C13.5417 9.90333 12.1875 10.8158 11.1125 12.1908C10.0375 13.5658 9.5 15.1033 9.5 16.8033C9.5 18.8867 10.2292 20.6575 11.6875 22.1158C13.1458 23.5742 14.9167 24.3033 17 24.3033Z" fill="#FAFAFA"/>
</svg>
