<svg width="32" height="32" viewBox="0 0 32 32" fill="none" xmlns="http://www.w3.org/2000/svg">
<path d="M14.2039 0.111855C6.82901 0.91988 0.896988 6.89927 0.0953639 14.1715C-0.70626 21.7669 3.62251 28.5543 10.1958 31.14C10.6768 31.3016 11.1578 30.9784 11.1578 30.332V27.7463C11.1578 27.7463 10.5165 27.9079 9.71485 27.9079C7.47031 27.9079 6.50836 25.9687 6.34803 24.8374C6.18771 24.191 5.86706 23.7062 5.38608 23.2214C4.90511 23.0598 4.74478 23.0598 4.74478 22.8982C4.74478 22.575 5.22576 22.575 5.38608 22.575C6.34803 22.575 7.14965 23.7062 7.4703 24.191C8.27193 25.4838 9.23388 25.8071 9.71485 25.8071C10.3562 25.8071 10.8371 25.6454 11.1578 25.4838C11.3181 24.3526 11.7991 23.2214 12.761 22.575C9.07355 21.7669 6.34803 19.6661 6.34803 16.1108C6.34803 14.3331 7.14965 12.5554 8.27193 11.2626C8.1116 10.9394 7.95128 10.1314 7.95128 9.00013C7.95128 8.35371 7.95128 7.54569 8.27193 6.89927C8.27193 6.57606 8.59258 6.41445 8.7529 6.41445H8.91323C9.71485 6.57606 11.3181 7.06087 12.761 8.51532C13.723 8.19211 14.8452 8.0305 15.9675 8.0305C17.0898 8.0305 18.2121 8.19211 19.174 8.51532C20.6169 7.06087 22.3805 6.57606 23.1821 6.41445H23.3425C23.6631 6.41445 23.8234 6.57606 23.9838 6.89927C23.9838 7.54569 23.9838 8.35371 23.9838 9.00013C23.9838 10.293 23.8234 10.9394 23.6631 11.2626C24.7854 12.5554 25.587 14.1715 25.587 16.1108C25.587 19.6661 22.8615 21.7669 19.174 22.575C20.136 23.383 20.7773 24.8374 20.7773 26.2919V30.4936C20.7773 30.9784 21.2582 31.4632 21.8995 31.3016C27.8316 28.8775 32 23.0598 32 16.2724C32 6.57606 23.8234 -1.01938 14.2039 0.111855Z" fill="white"/>
</svg>
