<svg width="40" height="40" viewBox="0 0 40 40" fill="none" xmlns="http://www.w3.org/2000/svg">
<g clip-path="url(#clip0_5_170)">
<path d="M7.49999 5C4.29801 5 1.66666 7.63135 1.66666 10.8333V30C1.66666 32.7416 3.92504 35 6.66666 35H13.3333V22.7897L20 27.998L26.6667 22.7897V35H33.3333C36.0749 35 38.3333 32.7416 38.3333 30V10.8333C38.3333 7.63135 35.702 5 32.5 5C31.2502 5 29.9709 5.40377 28.9062 6.23698L20 13.1868L11.0937 6.23698H11.0905C10.0263 5.40514 8.74877 5 7.49999 5ZM7.49999 8.33333C8.0502 8.33333 8.57103 8.49714 9.0397 8.86393L9.99999 9.61263V15.957L4.99999 12.054V10.8333C4.99999 9.43198 6.09864 8.33333 7.49999 8.33333ZM32.5 8.33333C33.9013 8.33333 35 9.43198 35 10.8333V12.054L30 15.957V9.61263L30.9603 8.86393C31.4289 8.49714 31.9498 8.33333 32.5 8.33333ZM13.3333 12.2135L20 17.4154L26.6667 12.2135V18.5612L20 23.7695L13.3333 18.5612V12.2135ZM4.99999 16.2826L9.99999 20.1855V31.6667H6.66666C5.72494 31.6667 4.99999 30.9417 4.99999 30V16.2826ZM35 16.2826V30C35 30.9417 34.275 31.6667 33.3333 31.6667H30V20.1855L35 16.2826Z" fill="#FF6666"/>
</g>
<defs>
<clipPath id="clip0_5_170">
<rect width="40" height="40" rx="8" fill="white"/>
</clipPath>
</defs>
</svg>
