<svg width="34" height="34" viewBox="0 0 34 34" fill="none" xmlns="http://www.w3.org/2000/svg">
<rect width="34" height="34" rx="17" fill="black" fill-opacity="0.5"/>
<path d="M16.9952 19.8636C17.7893 19.8636 18.4659 19.5857 19.025 19.0298C19.5841 18.4739 19.8636 17.7989 19.8636 17.0048C19.8636 16.2107 19.5857 15.5341 19.0298 14.975C18.4739 14.4159 17.7989 14.1364 17.0048 14.1364C16.2107 14.1364 15.5341 14.4143 14.975 14.9702C14.4159 15.5261 14.1364 16.2011 14.1364 16.9952C14.1364 17.7893 14.4143 18.4659 14.9702 19.025C15.5261 19.5841 16.2011 19.8636 16.9952 19.8636ZM17 21.0909C15.8682 21.0909 14.9034 20.692 14.1057 19.8943C13.308 19.0966 12.9091 18.1318 12.9091 17C12.9091 15.8682 13.308 14.9034 14.1057 14.1057C14.9034 13.308 15.8682 12.9091 17 12.9091C18.1318 12.9091 19.0966 13.308 19.8943 14.1057C20.692 14.9034 21.0909 15.8682 21.0909 17C21.0909 18.1318 20.692 19.0966 19.8943 19.8943C19.0966 20.692 18.1318 21.0909 17 21.0909ZM8.61364 17.6136C8.43977 17.6136 8.29403 17.5545 8.17642 17.4362C8.05881 17.3179 8 17.1713 8 16.9964C8 16.8215 8.05881 16.6761 8.17642 16.5602C8.29403 16.4443 8.43977 16.3864 8.61364 16.3864H10.6591C10.833 16.3864 10.9787 16.4455 11.0963 16.5638C11.2139 16.6821 11.2727 16.8287 11.2727 17.0036C11.2727 17.1785 11.2139 17.3239 11.0963 17.4398C10.9787 17.5557 10.833 17.6136 10.6591 17.6136H8.61364ZM23.3409 17.6136C23.167 17.6136 23.0213 17.5545 22.9037 17.4362C22.7861 17.3179 22.7273 17.1713 22.7273 16.9964C22.7273 16.8215 22.7861 16.6761 22.9037 16.5602C23.0213 16.4443 23.167 16.3864 23.3409 16.3864H25.3864C25.5602 16.3864 25.706 16.4455 25.8236 16.5638C25.9412 16.6821 26 16.8287 26 17.0036C26 17.1785 25.9412 17.3239 25.8236 17.4398C25.706 17.5557 25.5602 17.6136 25.3864 17.6136H23.3409ZM16.9964 11.2727C16.8215 11.2727 16.6761 11.2139 16.5602 11.0963C16.4443 10.9787 16.3864 10.833 16.3864 10.6591V8.61364C16.3864 8.43977 16.4455 8.29403 16.5638 8.17642C16.6821 8.05881 16.8287 8 17.0036 8C17.1785 8 17.3239 8.05881 17.4398 8.17642C17.5557 8.29403 17.6136 8.43977 17.6136 8.61364V10.6591C17.6136 10.833 17.5545 10.9787 17.4362 11.0963C17.3179 11.2139 17.1713 11.2727 16.9964 11.2727ZM16.9964 26C16.8215 26 16.6761 25.9412 16.5602 25.8236C16.4443 25.706 16.3864 25.5602 16.3864 25.3864V23.3409C16.3864 23.167 16.4455 23.0213 16.5638 22.9037C16.6821 22.7861 16.8287 22.7273 17.0036 22.7273C17.1785 22.7273 17.3239 22.7861 17.4398 22.9037C17.5557 23.0213 17.6136 23.167 17.6136 23.3409V25.3864C17.6136 25.5602 17.5545 25.706 17.4362 25.8236C17.3179 25.9412 17.1713 26 16.9964 26ZM12.0909 12.95L10.925 11.8045C10.8023 11.6818 10.7434 11.5345 10.7485 11.3627C10.7535 11.1908 10.8117 11.0442 10.9229 10.9229C11.0442 10.8016 11.1908 10.7409 11.3627 10.7409C11.5345 10.7409 11.6818 10.8023 11.8045 10.925L12.95 12.0909C13.0591 12.2136 13.1136 12.3568 13.1136 12.5205C13.1136 12.6841 13.0591 12.8239 12.95 12.9398C12.8409 13.0557 12.7011 13.1136 12.5307 13.1136C12.3602 13.1136 12.2136 13.0591 12.0909 12.95ZM22.1955 23.075L21.05 21.9091C20.9409 21.7864 20.8864 21.6406 20.8864 21.4719C20.8864 21.3031 20.9443 21.1625 21.0602 21.05C21.1761 20.9273 21.3159 20.8659 21.4795 20.8659C21.6432 20.8659 21.7864 20.9273 21.9091 21.05L23.075 22.1955C23.1977 22.3182 23.2566 22.4655 23.2515 22.6373C23.2465 22.8092 23.1883 22.9558 23.0771 23.0771C22.9558 23.1984 22.8092 23.2591 22.6373 23.2591C22.4655 23.2591 22.3182 23.1977 22.1955 23.075ZM21.05 12.95C20.9273 12.8273 20.8659 12.6841 20.8659 12.5205C20.8659 12.3568 20.9273 12.2136 21.05 12.0909L22.1955 10.925C22.3182 10.8023 22.4655 10.7434 22.6373 10.7485C22.8092 10.7535 22.9558 10.8117 23.0771 10.9229C23.1984 11.0442 23.2591 11.1908 23.2591 11.3627C23.2591 11.5345 23.1977 11.6818 23.075 11.8045L21.9091 12.95C21.8 13.0591 21.6612 13.1136 21.4926 13.1136C21.324 13.1136 21.1764 13.0591 21.05 12.95ZM10.9229 23.0771C10.8016 22.9558 10.7409 22.8092 10.7409 22.6373C10.7409 22.4655 10.8023 22.3182 10.925 22.1955L12.0909 21.05C12.2109 20.9273 12.3534 20.8659 12.5184 20.8659C12.6834 20.8659 12.8246 20.9273 12.942 21.05C13.0701 21.1727 13.1341 21.3159 13.1341 21.4795C13.1341 21.6432 13.0727 21.7864 12.95 21.9091L11.8045 23.075C11.6818 23.1977 11.5345 23.2566 11.3627 23.2515C11.1908 23.2465 11.0442 23.1883 10.9229 23.0771Z" fill="#FAFAFA"/>
</svg>
