<svg width="40" height="40" viewBox="0 0 40 40" fill="none" xmlns="http://www.w3.org/2000/svg">
<g clip-path="url(#clip0_5_163)">
<g clip-path="url(#clip1_5_163)">
<path d="M13.3333 13.3333H10V25C10 26.8333 11.5 28.3333 13.3333 28.3333H28.3333V25H13.3333V13.3333Z" fill="#66CCFF"/>
<path d="M33.3334 5H20C18.1667 5 16.6667 6.5 16.6667 8.33333V18.3333C16.6667 20.1667 18.1667 21.6667 20 21.6667H33.3334C35.1667 21.6667 36.6667 20.1667 36.6667 18.3333V8.33333C36.6667 6.5 35.1667 5 33.3334 5ZM33.3334 18.3333H20V11.6667H33.3334V18.3333Z" fill="#66CCFF"/>
<path d="M6.66668 20H3.33334V31.6667C3.33334 33.5 4.83334 35 6.66668 35H21.6667V31.6667H6.66668V20Z" fill="#66CCFF"/>
</g>
</g>
<defs>
<clipPath id="clip0_5_163">
<rect width="40" height="40" rx="8" fill="white"/>
</clipPath>
<clipPath id="clip1_5_163">
<rect width="40" height="40" fill="white"/>
</clipPath>
</defs>
</svg>
