<svg width="40" height="40" viewBox="0 0 40 40" fill="none" xmlns="http://www.w3.org/2000/svg">
<g clip-path="url(#clip0_18_32)">
<path d="M10 5C7.25838 5 5 7.25838 5 10V30C5 32.7416 7.25838 35 10 35H30C32.7416 35 35 32.7416 35 30V10C35 7.25838 32.7416 5 30 5H10ZM10 8.33333H30C30.9417 8.33333 31.6667 9.05828 31.6667 10V30C31.6667 30.9417 30.9417 31.6667 30 31.6667H10C9.05828 31.6667 8.33333 30.9417 8.33333 30V10C8.33333 9.05828 9.05828 8.33333 10 8.33333ZM11.1686 11.6667L17.7376 21.0547L11.5104 28.3333H13.7305L18.7337 22.474L22.8288 28.3333H29.2285L22.2526 18.3496L27.9557 11.6667H25.7715L21.2663 16.9336L17.5879 11.6667H11.1686ZM14.2773 13.3138H16.7546L26.1393 26.6862H23.6458L14.2773 13.3138Z" fill="#FAFAFA"/>
</g>
<defs>
<clipPath id="clip0_18_32">
<rect width="40" height="40" rx="8" fill="white"/>
</clipPath>
</defs>
</svg>
